<svg xmlns="http://www.w3.org/2000/svg" viewBox="0 0 512 512">
    <path fill="currentColor"
        d="M432,0H80C54.4,0,32,22.4,32,48V464c0,25.6,22.4,48,48,48H432c25.6,0,48-22.4,48-48V48C480,22.4,457.6,0,432,0ZM160,435.2c0,6.4-6.4,12.8-12.8,12.8H108.8c-6.4,0-12.8-6.4-12.8-12.8V396.8c0-6.4,6.4-12.8,12.8-12.8h38.4c6.4,0,12.8,6.4,12.8,12.8Zm0-128c0,6.4-6.4,12.8-12.8,12.8H108.8c-6.4,0-12.8-6.4-12.8-12.8V268.8c0-6.4,6.4-12.8,12.8-12.8h38.4c6.4,0,12.8,6.4,12.8,12.8Zm128,128c0,6.4-6.4,12.8-12.8,12.8H236.8c-6.4,0-12.8-6.4-12.8-12.8V396.8c0-6.4,6.4-12.8,12.8-12.8h38.4c6.4,0,12.8,6.4,12.8,12.8v38.4Zm0-128c0,6.4-6.4,12.8-12.8,12.8H236.8c-6.4,0-12.8-6.4-12.8-12.8V268.8c0-6.4,6.4-12.8,12.8-12.8h38.4c6.4,0,12.8,6.4,12.8,12.8v38.4Zm128,128c0,6.4-6.4,12.8-12.8,12.8H364.8c-6.4,0-12.8-6.4-12.8-12.8V268.8c0-6.4,6.4-12.8,12.8-12.8h38.4c6.4,0,12.8,6.4,12.8,12.8V435.2Zm0-256c0,6.4-6.4,12.8-12.8,12.8H108.8c-6.4,0-12.8-6.4-12.8-12.8V76.8c0-6.4,6.4-12.8,12.8-12.8H403.2c6.4,0,12.8,6.4,12.8,12.8Z" />
</svg>