<svg xmlns="http://www.w3.org/2000/svg" viewBox="0 0 512 512">
    <path fill="currentColor"
        d="M170.34,0a64,64,0,1,1-64,64,64,64,0,0,1,64-64m48,144H207a87.91,87.91,0,0,1-73.28,0H122.34a48,48,0,0,0-48,48V328a24,24,0,0,0,24,24h16V488a24,24,0,0,0,24,24h64a24,24,0,0,0,24-24V352h16a24,24,0,0,0,24-24V192A48,48,0,0,0,218.34,144Z" />
    <path fill="currentColor"
        d="M421.14,339.73H389.52V172.27h31.62c14.68,0,22-17.75,11.66-28.13L373.7,85a16.48,16.48,0,0,0-23.3,0l-59.1,59.1c-10.38,10.38-3,28.13,11.66,28.13h31.62V339.73H303c-14.68,0-22,17.75-11.66,28.13L350.4,427a16.48,16.48,0,0,0,23.3,0l59.09-59.1c10.39-10.38,3-28.13-11.65-28.13Z" />
</svg>